<svg xmlns="http://www.w3.org/2000/svg" viewBox="0 0 32 32" width="32" height="32">
  <rect x="4" y="4" width="24" height="24" rx="2" fill="#FACC15"/>
  <path fill="#000000" d="M12.5 14v7c0 2.2-1.3 2.8-3 2.8-1.5 0-2.4-.7-2.8-1.5l1.6-1c.3.5.6.8 1.2.8.7 0 1.1-.3 1.1-1.3V14zm7.5 5.8c.8.6 1.8 1 2.8 1 1 0 1.6-.4 1.6-1.1 0-.7-.5-1-1.6-1.4l-.8-.3c-1.8-.7-2.6-1.6-2.6-3 0-1.8 1.4-3.1 3.6-3.1 1.4 0 2.4.4 3.1 1l-1.2 1.3c-.6-.4-1.3-.7-2-.7-.8 0-1.3.4-1.3 1 0 .6.4.9 1.4 1.3l.8.3c2 .8 2.8 1.7 2.8 3.1 0 1.9-1.5 3.1-3.8 3.1-1.6 0-2.9-.6-3.7-1.4z"/>
</svg>